<?xml version="1.0" encoding="UTF-8"?>
<svg id="Layer_1" data-name="Layer 1" xmlns="http://www.w3.org/2000/svg" version="1.1" viewBox="0 0 400 400">
  <defs>
    <style>
      .cls-1 {
        fill: #3f1042;
        stroke-width: 0px;
      }
    </style>
  </defs>
  <path class="cls-1" d="M136.97,137.5c15.58-15.93,38.99-23.83,61.02-20.13,21.17,3.18,40.43,16.66,50.78,35.37,12.28,21.68,11.72,49.38-.56,70.95,9.99,10.28,20.37,20.2,30.34,30.52,6.42,6.11,6.54,17.17.61,23.65-6.04,7.12-18.1,7.6-24.7.99-10.43-9.96-19.77-21.05-30.7-30.5-17.02,10.1-38.32,12.78-57.25,6.97-19.43-5.82-36.02-20.37-44-39.04-11.76-25.96-5.97-58.78,14.45-78.78ZM173.16,125.28c-18.55,3.97-35.05,16.73-43.1,33.97-12.69,24.89-6,57.48,15.03,75.75,14.02,13.07,34.33,18.33,53.08,14.99,16.14-2.62,30.61-12.49,40.25-25.54,10.53-14.52,14.22-33.59,10.35-51.07-3.95-17.76-16.03-33.49-31.94-42.24-13.21-7.3-29.01-8.56-43.66-5.86ZM243.73,230.49c-4.08,4.76-8.41,9.31-13.01,13.59,8.12,8.84,16.9,17.08,25.25,25.72,3.22,3.15,7.01,7.28,12.04,6.26,7.23-1.06,10.77-11.25,5.18-16.29-9.69-9.89-19.47-19.7-29.46-29.28Z"/>
  <path class="cls-1" d="M184.52,136.57c5.86-2.44,9.78,6.79,4.3,9.69-6.45,3.94-11.56-7.84-4.3-9.69ZM185.63,139.32c-2.91.63-1.78,5.37,1.1,4.55,2.86-.59,1.73-5.37-1.1-4.55Z"/>
  <path class="cls-1" d="M143.08,158.68c-2.3-9.27,7.98-18.35,16.84-14.67,7.73,2.32,10.44,11.52,7.8,18.6,1.6,1.19,3.29,2.3,5.03,3.34,4.69-1.53,9.19-4.39,14.34-3.88,4.66-.02,8.75,2.48,12.8,4.49,2.01-1.6,4.03-3.2,6.04-4.82-2.62-8.21,2.97-17.83,11.86-18.3,9.99-.81,17.56,11.79,11.7,20.1-3.99,6.56-12.51,7.01-18.96,4.22-2.32,2.41-6.58,4.55-4.84,8.56,2.12,8.2.05,17.85-7.48,22.59-2.71,2.3-7.62,2.61-8.29,6.67,2.91,3.33,7.44,5.59,8.77,10.07,2.7,7.59-3.51,16.63-11.5,17.02-8.36.9-16.18-8.03-13.77-16.18,1.1-5.25,6.13-8,9.96-11.09-4.01-4.55-10.73-5.81-13.98-11.16-5.03-6.35-3.68-14.87-1.96-22.16-1.58-1.28-3.15-2.55-4.69-3.81-7.84,3.43-18.42-.52-19.68-9.6ZM151.77,152.51c-2.28,2.7-2.16,7.42,1.38,9.01,3.18,2.37,8.3-.79,8-4.66.72-5.03-5.91-7.57-9.38-4.35ZM214.7,151.97c-2.61,2.62-2.19,7.15.99,9.17,4.17,3.42,10.87-3.09,7.59-7.44-1.26-3.45-5.88-3.11-8.57-1.73ZM180.8,170.6c-4.35,2.21-7.55,6.69-7.85,11.61.14,7.06,6.63,14.11,14.07,12.87,9.29.54,15.82-11.81,10.32-19.29-3.2-5.75-10.68-7.78-16.54-5.19ZM182.32,215.3c-4.6,4.39,1.83,13.19,7.01,8.86,6.58-4.22-1.29-14.24-7.01-8.86Z"/>
  <path class="cls-1" d="M218.38,188.28c6.22-3.49,14.85,1.17,15.19,8.34,1.2,7.87-8.39,14.33-15.21,10.14-7.23-3.43-7.1-14.97.02-18.48ZM220.86,200.9c1.26-.43,3.77-1.28,5.03-1.71,1.2-3.11-1.89-5.25-4.73-4.42-.25,2.03-.29,4.08-.31,6.13Z"/>
  <path class="cls-1" d="M148.17,198.69c5.28-3.81,13.52-.74,14.92,5.64,2.21,7.33-6.72,14.51-13.41,10.8-6.54-2.5-7.21-12.73-1.51-16.45ZM153.22,204.28c-3.04.58-1.73,5.36,1.17,4.48,2.88-.61,1.62-5.3-1.17-4.48Z"/>
  <path class="cls-1" d="M210.51,225.49c1.74-3.81,6.11-2.28,9.33-2.09-.22,2.62,1.01,6.17-1.56,8.02-3.49,3.77-10.05-1.51-7.77-5.93ZM213.1,226.08c-2.25,2.57,2.32,5.61,4.13,2.95,2.17-2.61-2.35-5.63-4.13-2.95Z"/>
</svg>