<?xml version="1.0" encoding="UTF-8"?>
<svg id="Layer_1" data-name="Layer 1" xmlns="http://www.w3.org/2000/svg" version="1.1" viewBox="0 0 400 400">
  <defs>
    <style>
      .cls-1 {
        fill: #3f1042;
        stroke-width: 0px;
      }
    </style>
  </defs>
  <path class="cls-1" d="M145.75,119.53c-.5-3.02,3.15-3.76,5.36-3.52,22.85.02,45.69-.05,68.54.04,16.81-.13,31.78,13.89,34.08,30.31,1.26,7.89-.14,16-3.36,23.28-2.77,5.46-1.04,11.81-2.68,17.54-1.55,4.66-6.26,6.81-9.56,9.98-2.48,5.39-3.49,11.49-7.06,16.34-3.09,4.84-8.68,7.84-10.32,13.59,6.87.31,13.73-.11,20.58.54,15.8,1.26,29.44,14.78,31.42,30.4.83,7.51,1.22,15.19.22,22.7-.25,4.28-5.97,2.41-5.12-1.2-.29-12.47,1.62-26.98-8.14-36.67-8.38-10.37-22.49-10.55-34.64-9.96,3.81,6.06,10.8,10.78,12.56,17.69-4.19,4.28-9.54,7.14-14.34,10.64,2.97,3.65,7.3,6.52,9.08,10.96-1.8,4.1-4.22,8.09-7.64,11.05-6.42-1.08-.09-7.77,1.35-10.89-3.74-3.85-7.42-7.73-10.77-11.92,4.82-4.19,10.59-7.12,15.28-11.43-3.11-4.69-6.92-8.84-10.57-13.09-6.94,15.44-11.54,31.87-18.64,47.24-.72-.09-2.17-.31-2.89-.41-6.94-15.22-11.88-31.29-18.19-46.79-4.04,4.17-7.73,8.65-11.36,13.18,5.21,3.61,10.5,7.15,15.6,10.95-3.06,4.53-6.79,8.52-10.61,12.4,2.03,3.77,7.06,8.66,1.24,11.58-2.84-3.97-5.54-8.02-8.23-12.08,3.13-3.67,6.42-7.21,9.74-10.71-5.14-3.61-10.3-7.17-15.3-10.95,4.04-6.15,9.06-11.56,13.52-17.4-12.71-.83-27.59-.09-35.75,11.29-9.89,10.61-5.39,25.79-7.73,38.56-.86.13-2.61.34-3.47.45-2.5-7.01-1.11-14.69-1.02-21.95.52-15.22,11.99-29.26,26.8-32.82,8.27-1.82,16.81-.95,25.2-1.28-1.31-5.93-7.03-8.92-10.08-13.77-3.54-4.85-4.53-10.89-6.92-16.25-3.38-3.15-8.14-5.3-9.65-10.01-2.25-6.96.2-14.6-2.55-21.44-6.13-14.61-3.7-30.77-3.95-46.14ZM151.54,121.58c.09,12.49-1.13,25.15,1.37,37.5,2.88-2.39,5.86-4.66,8.97-6.74.14-6.06-.58-12.2.52-18.21,1.74-2.05,4.64-.49,6.87-.4,18.91,3.94,38.11,7.14,57.47,7.1,3.47.07,7.01-.13,10.39.84.95,3.43.79,7.06,1.02,10.61,3.63,2.46,6.97,5.32,10.07,8.45.45-8.97.83-18.8-5.12-26.23-6.04-8.68-16.63-13.52-27.12-12.96-21.48.05-42.96.02-64.42.04ZM167.75,139.21c-.04,4.28-.05,8.57-.07,12.87,21.44.22,42.91.09,64.35.05.02-1.35.05-4.04.09-5.39-21.66-.11-43.25-2.8-64.37-7.53ZM163.65,157.78c8.05,9.26,16.95,17.74,25.56,26.48,4.42-1.89,9.19-4.94,14.16-3.22,5.55,1.37,8.36,6.99,13.18,9.62,5.54,1.11,11.27.45,16.88.41-10.59-11.38-21.52-22.47-32.44-33.52-12.44.05-24.89-.29-37.33.23ZM209.5,157.55c9.83,10.91,20.08,21.48,30.68,31.65,4.58-6.76,2.88-15.37,2.71-23.01-.18-5.99-6.43-8.41-11.38-9.36,1.31,3.31,7.8,8.57,2.41,11.05-4.31-2.62-7.55-6.58-10.89-10.28-4.51-.07-9.02-.09-13.53-.05ZM158.62,161.14c-2.82,7.3-2.07,15.35-1.53,22.99,1.19,6.47,8.59,7.41,13.98,7.46-1.65-2.82-8.11-8.77-2-10.14,3.58,2.1,5.99,5.63,9.11,8.3,2.01,2.79,5.32.32,7.94.05-8.75-9.94-18.35-19.11-27.52-28.67ZM183.42,196.26c-5.19.58-10.44.34-15.66.52,1.87,7.26,5,14.42,10.87,19.32,10.62,10.44,29.07,11.13,40.6,1.8,6.94-5.07,11.04-12.98,12.91-21.23-5.34-.13-10.69.23-15.98-.47-6.67-.97-9.2-9.81-16.25-9.67-7.01.13-9.63,8.99-16.5,9.72ZM183.22,227.13c2.26,7.91,5.5,15.49,8.32,23.21,5.39,2.46,11.31,2.35,16.75.11,2.97-7.73,6.24-15.35,8.23-23.4-5.48,1.42-10.98,3.2-16.68,3.29-5.68-.2-11.14-1.91-16.63-3.2ZM194.32,257.88c1.64,4.64,3.52,9.22,6.06,13.48,1.8-4.46,3.47-8.97,5.1-13.5-3.74.04-7.46.04-11.16.02Z"/>
  <path class="cls-1" d="M186.86,205.47c4.46.4,8.45,2.75,12.89,3.31,4.58-.4,8.68-2.79,13.25-3.36,2.01,4.71-3.27,6.92-6.83,8.14-6.52,2.25-14.29.7-19.29-4.08,0-1.01-.02-3-.02-4.01Z"/>
</svg>